<svg xmlns="http://www.w3.org/2000/svg" viewBox="0 0 506.1 506"><defs><style>.cls-1{fill:#292627;}.cls-2{fill:#9ea1ff;}</style></defs><title>digital ID Generator 2</title><g id="Layer_2" data-name="Layer 2"><g id="Layer_1-2" data-name="Layer 1"><path class="cls-1" d="M434.5,498H71.5A63.72,63.72,0,0,1,8,434.5V71.5A63.72,63.72,0,0,1,71.5,8H434.6a63.72,63.72,0,0,1,63.5,63.5V434.6A63.85,63.85,0,0,1,434.5,498Z"/><path class="cls-2" d="M434.5,498v-8H71.5A54.84,54.84,0,0,1,50,485.62a56.21,56.21,0,0,1-24.47-20.18A55,55,0,0,1,16,434.5V71.5A54.84,54.84,0,0,1,20.38,50,56.21,56.21,0,0,1,40.56,25.51,55,55,0,0,1,71.5,16H434.6a54.84,54.84,0,0,1,21.52,4.38,56.21,56.21,0,0,1,24.47,20.18A55,55,0,0,1,490.1,71.5V434.58A54.84,54.84,0,0,1,485.67,456a56.39,56.39,0,0,1-20.22,24.45,55.06,55.06,0,0,1-31,9.51v16a70.9,70.9,0,0,0,27.78-5.65,72.36,72.36,0,0,0,31.48-25.9,71.06,71.06,0,0,0,12.35-39.83V71.5a70.86,70.86,0,0,0-5.65-27.78,72.2,72.2,0,0,0-25.93-31.46A71,71,0,0,0,434.6,0H71.5A70.86,70.86,0,0,0,43.72,5.65,72.2,72.2,0,0,0,12.27,31.58,71,71,0,0,0,0,71.5v363a70.86,70.86,0,0,0,5.65,27.78,72.2,72.2,0,0,0,25.93,31.46A71,71,0,0,0,71.5,506h363Z"/><path class="cls-2" d="M102.17,101V204.26H205.43V101Zm79,79H126.47V125.3h54.67Z"/><rect class="cls-2" x="141.65" y="140.48" width="24.3" height="24.3"/><path class="cls-2" d="M309.91,101V204.26H413.17V101Zm79,79H334.2V125.3h54.67Z"/><rect class="cls-2" x="349.39" y="140.48" width="24.3" height="24.3"/><path class="cls-2" d="M102.17,308.74V412H205.43V308.74Zm79,79H126.47V333h54.67Z"/><rect class="cls-2" x="141.65" y="348.22" width="24.3" height="24.3"/><rect class="cls-2" x="126.47" y="220.66" width="24.3" height="24.3"/><polygon class="cls-2" points="175.06 269.26 175.06 244.96 150.76 244.96 150.76 269.26 174.45 269.26 174.45 293.55 198.75 293.55 198.75 269.26 175.06 269.26"/><rect class="cls-2" x="272.25" y="147.77" width="24.3" height="24.3"/><rect class="cls-2" x="223.65" y="125.3" width="24.3" height="46.77"/><rect class="cls-2" x="247.95" y="101" width="24.3" height="24.3"/><polygon class="cls-2" points="247.95 172.07 247.95 196.37 223.65 196.37 223.65 220.66 272.25 220.66 272.25 172.07 247.95 172.07"/><polygon class="cls-2" points="272.25 316.63 272.25 292.94 247.95 292.94 247.95 244.96 223.65 244.96 223.65 293.55 247.95 293.55 247.95 317.24 272.25 317.24 272.25 340.93 320.84 340.93 320.84 316.63 272.25 316.63"/><rect class="cls-2" x="272.25" y="220.66" width="24.3" height="48.59"/><path class="cls-2" d="M388.87,244.35V220.66H344.53V245H320.84v24.3h24.3v23.69h68V244.35Zm0,24.3H345.14V245h43.73Z"/><rect class="cls-2" x="388.87" y="316.63" width="24.3" height="48.59"/><rect class="cls-2" x="296.54" y="269.26" width="24.3" height="24.3"/><rect class="cls-2" x="320.84" y="340.93" width="24.3" height="24.3"/><rect class="cls-2" x="345.14" y="316.63" width="24.3" height="24.3"/><polygon class="cls-2" points="345.14 365.23 345.14 412 369.44 412 369.44 389.52 388.87 389.52 388.87 365.23 345.14 365.23"/><rect class="cls-2" x="223.65" y="317.24" width="24.3" height="46.16"/><polygon class="cls-2" points="296.54 387.7 296.54 363.41 247.95 363.41 247.95 412 272.25 412 272.25 387.7 295.94 387.7 295.94 412 320.23 412 320.23 387.7 296.54 387.7"/><rect class="cls-2" x="175.06" y="220.66" width="48.59" height="24.3"/><rect class="cls-2" x="102.17" y="244.96" width="24.3" height="48.59"/></g></g></svg>