<svg xmlns="http://www.w3.org/2000/svg" viewBox="0 0 506.1 506"><defs><style>.cls-1{fill:#292627;}.cls-2{fill:#9ea1ff;}</style></defs><title>facial recognition 2</title><g id="Layer_2" data-name="Layer 2"><g id="Layer_1-2" data-name="Layer 1"><path class="cls-1" d="M434.5,498H71.5A63.72,63.72,0,0,1,8,434.5V71.5A63.72,63.72,0,0,1,71.5,8H434.6a63.72,63.72,0,0,1,63.5,63.5V434.6A63.85,63.85,0,0,1,434.5,498Z"/><path class="cls-2" d="M434.5,498v-8H71.5A54.84,54.84,0,0,1,50,485.62a56.21,56.21,0,0,1-24.47-20.18A55,55,0,0,1,16,434.5V71.5A54.84,54.84,0,0,1,20.38,50,56.21,56.21,0,0,1,40.56,25.51,55,55,0,0,1,71.5,16H434.6a54.84,54.84,0,0,1,21.52,4.38,56.21,56.21,0,0,1,24.47,20.18A55,55,0,0,1,490.1,71.5V434.58A54.84,54.84,0,0,1,485.67,456a56.39,56.39,0,0,1-20.22,24.45,55.06,55.06,0,0,1-31,9.51v16a70.9,70.9,0,0,0,27.78-5.65,72.36,72.36,0,0,0,31.48-25.9,71.06,71.06,0,0,0,12.35-39.83V71.5a70.86,70.86,0,0,0-5.65-27.78,72.2,72.2,0,0,0-25.93-31.46A71,71,0,0,0,434.6,0H71.5A70.86,70.86,0,0,0,43.72,5.65,72.2,72.2,0,0,0,12.27,31.58,71,71,0,0,0,0,71.5v363a70.86,70.86,0,0,0,5.65,27.78,72.2,72.2,0,0,0,25.93,31.46A71,71,0,0,0,71.5,506h363Z"/><path class="cls-2" d="M113.37,110.2h45.9V100h-51a5.1,5.1,0,0,0-5.1,5.1v51h10.2Z"/><path class="cls-2" d="M399,156.1h10.2v-51a5.1,5.1,0,0,0-5.1-5.1h-51v10.2H399Z"/><path class="cls-2" d="M399,395.8h-45.9V406h51a5.1,5.1,0,0,0,5.1-5.1v-51H399Z"/><path class="cls-2" d="M108.27,406h51V395.8h-45.9V349.9h-10.2v51A5.1,5.1,0,0,0,108.27,406Z"/><path class="cls-2" d="M353,238.54A130.53,130.53,0,0,0,358.17,202a102,102,0,0,0-204,0,130.53,130.53,0,0,0,5.21,36.54A15.32,15.32,0,0,0,149.07,253v25.5a30.69,30.69,0,0,0,22.88,29.61l1.26,20.18a56.32,56.32,0,0,0,20.08,39.6L225.85,395a47.36,47.36,0,0,0,60.64,0l32.57-27.14h0a56.32,56.32,0,0,0,20.08-39.6l1.26-20.18a30.69,30.69,0,0,0,22.88-29.61V253A15.32,15.32,0,0,0,353,238.54ZM256.17,110.2A91.91,91.91,0,0,1,348,202a120.42,120.42,0,0,1-6.19,38.14l-1.31,3.93-4.15-41.53a45.76,45.76,0,0,0-45.67-41.33h-69A45.76,45.76,0,0,0,176,202.53l-4.15,41.53-1.31-3.93A120.42,120.42,0,0,1,164.37,202,91.91,91.91,0,0,1,256.17,110.2ZM239.79,356.74l3.12,2.34a5.1,5.1,0,0,0,3.06,1h20.4a5.1,5.1,0,0,0,3.06-1l3.12-2.34L256.17,389.5Zm5.74-98.64h21.28L271,304H241.35Zm23.83-10.2H243l-15.3-15.3h57ZM212.7,232l5.67,5.67h-.45A32.49,32.49,0,0,0,198,244.18l-.94.73-8.47-19.77Zm-15.17,29.41.47.37a32.5,32.5,0,0,0,19.92,6.48,33.38,33.38,0,0,0,16.84-4.4l-3.56,39.18-44.83-8.15Zm65,64.25-6.4,3.2-6.4-3.2L244,314.2h24.3Zm18.58-22.61-3.56-39.18a33.38,33.38,0,0,0,16.84,4.4,32.49,32.49,0,0,0,19.92-6.48l.47-.37L326,294.93Zm34.14-58.17-.94-.73a32.49,32.49,0,0,0-19.92-6.48H294l5.67-5.67,24.12-6.89Zm-19-22.52H216.08l-30.92-8.83,1-10a35.59,35.59,0,0,1,35.52-32.15h69a35.59,35.59,0,0,1,35.52,32.15l1,10Zm-116.57,46,3.09-30.9,6.74,15.73-9.08,27.24Zm52.66,45.27,6.78,13.56-12.75,6.38-29.73-26.42ZM286,333.59l-12.75-6.37L280,313.66l35.7-6.49Zm36.86-80.37,6.74-15.73,3.09,30.9-.75,12.07ZM159.27,278.5V253a5.11,5.11,0,0,1,3.24-4.74l7,21,1.74,27.81A20.48,20.48,0,0,1,159.27,278.5ZM199.81,360a46.09,46.09,0,0,1-16.43-32.4l-1.23-19.72,39.29,34.92,25.94,51.87a37.21,37.21,0,0,1-15-7.55Zm112.71,0h0L280,387.19a37.21,37.21,0,0,1-15,7.55l25.94-51.87,39.29-34.92L329,327.65A46.09,46.09,0,0,1,312.52,360Zm40.54-81.55a20.48,20.48,0,0,1-12,18.59l1.74-27.81,7-21a5.11,5.11,0,0,1,3.24,4.74Z"/></g></g></svg>