<svg xmlns="http://www.w3.org/2000/svg" viewBox="0 0 506.1 506"><defs><style>.cls-1{fill:#292627;}.cls-2{fill:#9ea1ff;}.cls-3{fill:#fff;}</style></defs><title>id validator 2</title><g id="Layer_2" data-name="Layer 2"><g id="Layer_1-2" data-name="Layer 1"><path class="cls-1" d="M434.5,498H71.5A63.72,63.72,0,0,1,8,434.5V71.5A63.72,63.72,0,0,1,71.5,8H434.6a63.72,63.72,0,0,1,63.5,63.5V434.6A63.85,63.85,0,0,1,434.5,498Z"/><path class="cls-2" d="M434.5,498v-8H71.5A54.84,54.84,0,0,1,50,485.62a56.21,56.21,0,0,1-24.47-20.18A55,55,0,0,1,16,434.5V71.5A54.84,54.84,0,0,1,20.38,50,56.21,56.21,0,0,1,40.56,25.51,55,55,0,0,1,71.5,16H434.6a54.84,54.84,0,0,1,21.52,4.38,56.21,56.21,0,0,1,24.47,20.18A55,55,0,0,1,490.1,71.5V434.58A54.84,54.84,0,0,1,485.67,456a56.39,56.39,0,0,1-20.22,24.45,55.06,55.06,0,0,1-31,9.51v16a70.9,70.9,0,0,0,27.78-5.65,72.36,72.36,0,0,0,31.48-25.9,71.06,71.06,0,0,0,12.35-39.83V71.5a70.86,70.86,0,0,0-5.65-27.78,72.2,72.2,0,0,0-25.93-31.46A71,71,0,0,0,434.6,0H71.5A70.86,70.86,0,0,0,43.72,5.65,72.2,72.2,0,0,0,12.27,31.58,71,71,0,0,0,0,71.5v363a70.86,70.86,0,0,0,5.65,27.78,72.2,72.2,0,0,0,25.93,31.46A71,71,0,0,0,71.5,506h363Z"/><path class="cls-2" d="M215.05,301.75v9.5h-85.5v-9.5a18.84,18.84,0,0,1,13.68-18.14L162.8,278v-7.36a19,19,0,0,1-9.5-16.39v-9.5A19,19,0,0,1,174,225.85c10,.86,17.29,9.88,17.29,19.9v8.5a19,19,0,0,1-9.5,16.39V278l19.57,5.61A18.84,18.84,0,0,1,215.05,301.75Z"/><path class="cls-2" d="M196.05,164h-76a14.27,14.27,0,0,0-14.25,14.25v142.5A14.27,14.27,0,0,0,120.05,335h266a14.27,14.27,0,0,0,14.25-14.25V178.25A14.27,14.27,0,0,0,386.05,164h-76M390.8,320.75a4.76,4.76,0,0,1-4.75,4.75H238.8V316h-9.5v9.5H120.05a4.76,4.76,0,0,1-4.75-4.75V178.25a4.76,4.76,0,0,1,4.75-4.75h76.87c1.24,0,26.06.5,32.24.5l.13,9v9.5h9.5V183l.37-9c6.18,0,68-.5,70-.5h76.87a4.76,4.76,0,0,1,4.75,4.75Z"/><path class="cls-2" d="M202.65,279l-16.1-4.6v-1.26a23.77,23.77,0,0,0,9.5-18.9v-8.51c0-12.77-9.5-23.59-21.64-24.64a23.74,23.74,0,0,0-25.86,23.65v9.5a23.77,23.77,0,0,0,9.5,18.9v1.26l-16.1,4.6a23.74,23.74,0,0,0-17.15,22.73V316h95V301.75A23.74,23.74,0,0,0,202.65,279Zm7.65,27.48h-76v-4.75a14.2,14.2,0,0,1,10.26-13.6l23-6.57v-13.7l-2.36-1.37a14.1,14.1,0,0,1-7.14-12.26v-9.5a14.25,14.25,0,0,1,15.54-14.19c7.27.63,13,7.29,13,15.18v8.51a14.1,14.1,0,0,1-7.14,12.26l-2.36,1.37v13.7l23,6.57a14.2,14.2,0,0,1,10.26,13.6Z"/><path class="cls-2" d="M143.8,183h9.5v9.5h-9.5Z"/><path class="cls-2" d="M162.8,183h9.5v9.5h-9.5Z"/><path class="cls-2" d="M181.8,183h9.5v9.5h-9.5Z"/><path class="cls-2" d="M124.8,202h66.5v9.5H124.8Z"/><path class="cls-2" d="M229.3,297h9.5v9.5h-9.5Z"/><path class="cls-2" d="M229.3,278h9.5v9.5h-9.5Z"/><path class="cls-2" d="M229.3,259h9.5v9.5h-9.5Z"/><path class="cls-2" d="M229.3,240h9.5v9.5h-9.5Z"/><path class="cls-2" d="M229.3,221h9.5v9.5h-9.5Z"/><path class="cls-2" d="M229.3,202h9.5v9.5h-9.5Z"/><path class="cls-2" d="M248.3,268.5h133V202h-133Zm9.5-57h114V259h-114Z"/><path class="cls-2" d="M371.8,306.5h9.5V316h-9.5Z"/><path class="cls-2" d="M371.8,278h9.5v19h-9.5Z"/><path class="cls-2" d="M333.8,306.5h9.5V316h-9.5Z"/><path class="cls-2" d="M333.8,278h9.5v19h-9.5Z"/><path class="cls-2" d="M314.8,306.5h9.5V316h-9.5Z"/><path class="cls-2" d="M314.8,278h9.5v19h-9.5Z"/><path class="cls-2" d="M295.8,306.5h9.5V316h-9.5Z"/><path class="cls-2" d="M295.8,278h9.5v19h-9.5Z"/><path class="cls-2" d="M352.8,278h9.5v38h-9.5Z"/><path class="cls-2" d="M267.3,221h9.5v9.5h-9.5Z"/><path class="cls-2" d="M286.3,221h9.5v9.5h-9.5Z"/><path class="cls-2" d="M305.3,221h57v9.5h-57Z"/><path class="cls-2" d="M267.3,240h95v9.5h-95Z"/><path class="cls-2" d="M276.8,278h9.5v38h-9.5Z"/><path class="cls-2" d="M257.8,278h9.5v38h-9.5Z"/><path class="cls-2" d="M314.8,183h66.5v9.5H314.8Z"/><path class="cls-2" d="M380.17,250a60,60,0,1,0,60,60A60.07,60.07,0,0,0,380.17,250Z"/><path class="cls-3" d="M410.58,297.29l-32.5,32.5a5,5,0,0,1-7.07,0l-16.25-16.25a5,5,0,0,1,7.07-7.07l12.71,12.71,29-29a5,5,0,1,1,7.07,7.07Z"/></g></g></svg>